<svg xmlns="http://www.w3.org/2000/svg" fill="none" viewBox="0 0 241 194"><mask id="a" width="242" height="194" x="-1" y="0" maskUnits="userSpaceOnUse" style="mask-type:luminance"><path fill="#fff" d="M240.5 1H0v193h240.5V1Z"/></mask><g mask="url(#a)"><path fill="#fff" d="M96.1 194c-35 0-63.4-15.7-80.1-44.2C1.2 125 0 98 0 67.8c0-18 5.4-33.5 15.5-45A59.4 59.4 0 0 1 52.8 3.3C70.3 1 92 1 114.5 1c36.8 0 47.1.4 61.6 1.9 19.2 1.9 35.4 9 46.7 20.7a64 64 0 0 1 17.7 45.8V73a65 65 0 0 1-49.5 63.8c-2.1 5-4.8 10-8 15v.2a91.3 91.3 0 0 1-79.6 42h-7.3Z"/><path fill="#fff" d="M174.6 18a534.2 534.2 0 0 0-60-1.8 508 508 0 0 0-59.8 2.2c-21.4 2.8-39.6 19.1-39.6 49.4 0 30.2 1.6 53.6 13.9 74.3 13.8 23.7 37 36.6 67 36.6h7.3a75.8 75.8 0 0 0 66.9-35 82.8 82.8 0 0 0 9.5-20.5A49.7 49.7 0 0 0 225.3 73v-3.6c0-28.5-18.7-48.2-50.7-51.4Z"/><path fill="#202020" d="M15.2 67.8c0-30.3 18.2-46.6 39.6-49.4 16.1-2 36.1-2.2 59.7-2.2 36.9 0 46.4.4 60 1.8 32.1 3.2 50.8 23 50.8 51.4V73c0 26.4-19.4 48-45.5 50.2-2 6.9-5.2 13.7-9.6 20.5-10 15.5-30 35-66.8 35h-7.3c-30 0-53.2-13-67-36.6-12.3-20.7-14-43.6-14-74.3"/><path fill="#fff" d="M32.2 68c0 29.3 1.9 48.2 11.4 65.7 11 20.2 30.7 28 53.2 28h7c29.6 0 44-14.4 51.9-26.9a68.3 68.3 0 0 0 9-22.3l1.4-5.6h8.2a34 34 0 0 0 34-33.7v-3.4c0-21.1-13.3-32.3-36.2-35-13-1.1-20.7-1.6-57.6-1.6-24.7 0-42.5.2-55.9 2.3C39.7 38.2 32.2 48.9 32.2 68"/><path fill="#202020" d="M166.2 83.7c0 2.7 2 4.8 5.6 4.8 11.6 0 18-6.6 18-17.5 0-11-6.4-17.8-18-17.8-3.6 0-5.6 2-5.6 4.8v25.7Z"/><path fill="#FF5A16" d="M54.5 82.3c0 13.4 7.5 25 17 34.1A141 141 0 0 0 94.9 133a12.9 12.9 0 0 0 13.2 0 126 126 0 0 0 23-16.6c9.7-9 17.2-20.7 17.2-34a27 27 0 0 0-26.6-27.6c-9.3 0-15.7 4.8-20.5 11.4A23.4 23.4 0 0 0 81 54.8c-16 0-26.4 13-26.4 27.5"/></g></svg>